<?xml version="1.0" standalone="no"?><!DOCTYPE svg PUBLIC "-//W3C//DTD SVG 1.1//EN" "http://www.w3.org/Graphics/SVG/1.1/DTD/svg11.dtd"><svg t="1748414720176" class="icon" viewBox="0 0 1024 1024" version="1.1" xmlns="http://www.w3.org/2000/svg" p-id="8550" xmlns:xlink="http://www.w3.org/1999/xlink" width="32" height="32"><path d="M521 273.5c-82.3 0-149 65.9-149 147.1 0 81.2 66.7 147.1 149 147.1s149-65.9 149-147.1c0-81.2-66.7-147.1-149-147.1zM512 957c-10.8 0-16.5-1.5-20.6-5.6-2.1-2.5-231.3-270.6-292-400.8-22.1-46.3-33.5-97.1-33.5-146.5C165.9 218.6 320.9 67 512 67c191.1 0 346.1 152.1 346.1 339.2 0 56.5-10.8 99.2-37.1 147.5-72.6 133.2-286.4 394.1-288.4 396.7-2.6 3.1-7.2 6.1-20.1 6.1l-0.5 0.5z" fill="#d81e06" p-id="8551"></path></svg>